Coordinates
version=1
nRows=46
nColumns=24
inDegrees=yes

Units are S.I. units (second, meters, Newtons, ...)
If the header above contains a line with 'inDegrees', this indicates whether rotational values are in degrees (yes) or radians (no).

endheader
time	pelvis_tilt	pelvis_list	pelvis_rotation	pelvis_tx	pelvis_ty	pelvis_tz	hip_flexion_r	hip_adduction_r	hip_rotation_r	knee_angle_r	ankle_angle_r	subtalar_angle_r	mtp_angle_r	hip_flexion_l	hip_adduction_l	hip_rotation_l	knee_angle_l	ankle_angle_l	subtalar_angle_l	mtp_angle_l	lumbar_extension	lumbar_bending	lumbar_rotation
0.200000	15.591968	3.101346	-179.678073	0.212947	0.844292	-1.214260	19.773975	-8.891982	-34.574382	-9.104276	-0.667955	13.736210	0.000000	21.095552	-16.870135	-32.289583	-10.498988	0.165838	16.388630	0.000000	5.628023	2.003083	-0.814236
0.205000	15.611353	3.111348	-179.714387	0.212689	0.844264	-1.214082	19.786672	-8.889176	-34.576015	-9.113429	-0.659097	13.743661	0.000000	21.065038	-16.863649	-32.312786	-10.450330	0.184483	16.378990	0.000000	5.679399	2.053422	-0.796657
0.210000	15.614375	3.118412	-179.730169	0.212647	0.844274	-1.214089	19.803336	-8.885361	-34.575651	-9.142239	-0.640635	13.752681	0.000000	21.069123	-16.880961	-32.320343	-10.467128	0.165645	16.362459	0.000000	5.679208	2.064568	-0.757414
0.215000	15.617414	3.118896	-179.728799	0.212603	0.844269	-1.214135	19.804096	-8.882428	-34.575394	-9.143383	-0.640480	13.754114	0.000000	21.069165	-16.882836	-32.321661	-10.465917	0.166477	16.360887	0.000000	5.676940	2.055782	-0.762654
0.220000	15.613980	3.101783	-179.702906	0.212603	0.844267	-1.214193	19.790774	-8.898808	-34.561465	-9.130189	-0.647672	13.766015	0.000000	21.090375	-16.871820	-32.308147	-10.505049	0.171257	16.363116	0.000000	5.665358	2.022850	-0.802366
0.225000	15.606227	3.095630	-179.669796	0.212621	0.844249	-1.214234	19.778207	-8.910237	-34.575002	-9.128353	-0.654036	13.760168	0.000000	21.104811	-16.863991	-32.274922	-10.511439	0.208006	16.393966	0.000000	5.641174	1.998211	-0.839067
0.230000	15.606858	3.096169	-179.669717	0.212582	0.844273	-1.214221	19.778741	-8.909580	-34.575158	-9.128899	-0.653862	13.760075	0.000000	21.104655	-16.863849	-32.275069	-10.511809	0.207873	16.393918	0.000000	5.640170	1.998033	-0.839059
0.235000	15.599301	3.116802	-179.690459	0.212549	0.844321	-1.214198	19.801637	-8.899619	-34.594220	-9.199187	-0.623082	13.746388	0.000000	21.106754	-16.898453	-32.310333	-10.558364	0.166711	16.350526	0.000000	5.621883	2.026492	-0.807083
0.240000	15.602333	3.125953	-179.713020	0.212468	0.844297	-1.214145	19.813790	-8.893195	-34.594456	-9.219516	-0.618100	13.752339	0.000000	21.094459	-16.909406	-32.315762	-10.533942	0.176730	16.346338	0.000000	5.626836	2.053353	-0.798270
0.245000	15.593156	3.117574	-179.707864	0.212461	0.844312	-1.214178	19.804688	-8.901349	-34.584035	-9.222912	-0.622181	13.762456	0.000000	21.108281	-16.912444	-32.308834	-10.580557	0.175521	16.342627	0.000000	5.612405	2.037823	-0.785406
0.250000	15.575946	3.109902	-179.675073	0.212559	0.844359	-1.214288	19.795304	-8.909731	-34.598455	-9.237905	-0.629134	13.748424	0.000000	21.133324	-16.914610	-32.278124	-10.637077	0.202506	16.343982	0.000000	5.568157	2.004132	-0.817630
0.255000	15.568311	3.108882	-179.676718	0.212522	0.844397	-1.214305	19.794043	-8.912375	-34.605289	-9.252683	-0.625511	13.743363	0.000000	21.136873	-16.920925	-32.270233	-10.666378	0.199818	16.339487	0.000000	5.552648	2.002340	-0.815679
0.260000	15.553629	3.103449	-179.671815	0.212513	0.844427	-1.214309	19.786872	-8.915116	-34.605700	-9.251281	-0.561107	13.732315	0.000000	21.148904	-16.927809	-32.262326	-10.715265	0.191858	16.323187	0.000000	5.525547	1.990323	-0.806457
0.265000	15.540757	3.109114	-179.673925	0.212601	0.844497	-1.214355	19.800345	-8.911371	-34.606413	-9.293336	-0.548777	13.720539	0.000000	21.163908	-16.948201	-32.246544	-10.758186	0.176800	16.304482	0.000000	5.484672	1.987904	-0.793936
0.270000	15.514923	3.112578	-179.657074	0.212684	0.844552	-1.214438	19.789099	-8.909105	-34.618953	-9.320964	-0.524699	13.687763	0.000000	21.182386	-16.965643	-32.191488	-10.824584	0.193156	16.248964	0.000000	5.430400	1.972692	-0.812213
0.275000	15.493370	3.103195	-179.637721	0.212793	0.844585	-1.214557	19.778322	-8.916372	-34.600287	-9.336975	-0.533520	13.688481	0.000000	21.207190	-16.976848	-32.152144	-10.893494	0.178802	16.245733	0.000000	5.379840	1.934172	-0.815559
0.280000	15.455721	3.108188	-179.597485	0.212822	0.844625	-1.214621	19.740473	-8.915297	-34.615335	-9.351188	-0.511708	13.641939	0.000000	21.210376	-16.983560	-32.080894	-10.940620	0.184188	16.195083	0.000000	5.320539	1.919096	-0.866480
0.285000	15.442118	3.113414	-179.599940	0.212903	0.844706	-1.214669	19.754223	-8.920615	-34.596995	-9.413603	-0.548577	13.642825	0.000000	21.228798	-17.004321	-32.048831	-10.989358	0.166207	16.188717	0.000000	5.280886	1.921900	-0.857255
0.290000	15.476883	3.141611	-179.598729	0.213052	0.844732	-1.214703	19.822397	-8.892604	-34.568693	-9.452879	-0.589223	13.491575	0.000000	21.307055	-17.018910	-31.827030	-11.018290	0.146573	15.864813	0.000000	5.294656	1.949116	-0.849059
0.295000	15.457328	3.137959	-179.618450	0.213105	0.844807	-1.214733	19.832014	-8.898418	-34.543888	-9.500270	-0.587560	13.494461	0.000000	21.311577	-17.037059	-31.812404	-11.079097	0.137083	15.852329	0.000000	5.255423	1.949400	-0.838013
0.300000	15.432532	3.125147	-179.622391	0.213180	0.844844	-1.214753	19.839867	-8.921091	-34.522315	-9.561325	-0.547840	13.475197	0.000000	21.328243	-17.045885	-31.781712	-11.163209	0.167530	15.813689	0.000000	5.207798	1.933722	-0.813215
0.305000	15.408937	3.118095	-179.618597	0.213234	0.844853	-1.214811	19.835398	-8.934630	-34.491928	-9.596427	-0.557935	13.482437	0.000000	21.341921	-17.057876	-31.757484	-11.233735	0.161620	15.805802	0.000000	5.166104	1.913739	-0.813532
0.310000	15.380918	3.112992	-179.616223	0.213311	0.844881	-1.214870	19.837282	-8.948821	-34.466315	-9.651383	-0.553367	13.480032	0.000000	21.357234	-17.076702	-31.728991	-11.310556	0.170715	15.791123	0.000000	5.110946	1.895127	-0.815497
0.315000	15.364284	3.125819	-179.627574	0.213442	0.844936	-1.214938	19.872114	-8.946568	-34.438414	-9.742458	-0.481210	13.446328	0.000000	21.392625	-17.114084	-31.674893	-11.403346	0.230845	15.701890	0.000000	5.061942	1.902396	-0.801552
0.320000	15.357815	3.121839	-179.674643	0.213409	0.844978	-1.214883	19.917822	-8.969095	-34.407562	-9.839868	-0.447677	13.421190	0.000000	21.398677	-17.128088	-31.651897	-11.465053	0.256603	15.589503	0.000000	5.051915	1.921941	-0.756941
0.325000	15.376951	3.092895	-179.761181	0.213168	0.844925	-1.214616	19.975009	-9.023533	-34.322609	-9.922238	-0.437394	13.479588	0.000000	21.384443	-17.101858	-31.650970	-11.506647	0.355059	15.493339	0.000000	5.104066	1.961300	-0.683951
0.330000	15.289390	3.121695	-179.768346	0.213284	0.845053	-1.214908	19.916877	-8.981339	-34.292556	-9.977081	-0.399264	13.479669	0.000000	21.355481	-17.179231	-31.586901	-11.621169	0.341591	15.431220	0.000000	4.978571	1.958733	-0.675334
0.335000	15.265365	3.097389	-179.778247	0.213437	0.845055	-1.214948	19.948560	-9.024418	-34.246916	-10.070879	-0.403297	13.462714	0.000000	21.389199	-17.182907	-31.535074	-11.739474	0.390932	15.387579	0.000000	4.921076	1.932383	-0.674332
0.340000	15.247319	3.098768	-179.815236	0.213606	0.845063	-1.215001	20.007039	-9.039284	-34.178000	-10.198898	-0.339753	13.439646	0.000000	21.417723	-17.214882	-31.492677	-11.835903	0.405504	15.296881	0.000000	4.867588	1.939814	-0.640539
0.345000	15.279124	3.026730	-179.816546	0.213932	0.844990	-1.214831	20.149565	-9.171573	-34.115975	-10.385576	-0.282763	13.382423	0.000000	21.525220	-17.145251	-31.400977	-11.954140	0.461970	15.168463	0.000000	4.852098	1.878096	-0.627241
0.350000	15.296966	3.023372	-179.836853	0.214260	0.844967	-1.214925	20.251819	-9.181450	-33.953655	-10.502624	-0.221049	13.290559	0.000000	21.618148	-17.141202	-31.092238	-12.044469	0.470071	14.750696	0.000000	4.821727	1.869753	-0.607035
0.355000	15.224967	3.000352	-179.822220	0.214462	0.845015	-1.215024	20.244826	-9.229761	-33.908989	-10.626454	-0.183557	13.199447	0.000000	21.626009	-17.144488	-30.985768	-12.178120	0.514091	14.628950	0.000000	4.697894	1.824146	-0.632867
0.360000	15.188375	2.944825	-179.826367	0.214688	0.844968	-1.215135	20.283068	-9.303619	-33.808901	-10.735649	-0.081397	13.154004	0.000000	21.672479	-17.130898	-30.948737	-12.344689	0.583178	14.557523	0.000000	4.614752	1.753306	-0.650174
0.365000	15.120810	2.965417	-179.898198	0.214823	0.845044	-1.215351	20.307407	-9.281329	-33.703497	-10.888530	-0.034183	13.105777	0.000000	21.664003	-17.221219	-30.913230	-12.507504	0.623139	14.458666	0.000000	4.508526	1.772361	-0.579614
0.370000	15.213234	2.918067	-179.945732	0.215343	0.844983	-1.215202	20.559678	-9.367701	-33.461807	-11.115154	-0.085152	12.759408	0.000000	21.843207	-17.154600	-30.586491	-12.599344	0.549849	13.897515	0.000000	4.538529	1.758400	-0.536250
0.375000	15.159730	2.931021	-179.992052	0.215668	0.845012	-1.215269	20.631728	-9.387512	-33.389090	-11.327928	0.000073	12.721759	0.000000	21.882916	-17.232518	-30.527809	-12.821559	0.676584	13.848842	0.000000	4.414535	1.778125	-0.471409
0.380000	15.126397	2.930681	-180.030645	0.215945	0.844963	-1.215320	20.713265	-9.419399	-33.284213	-11.521548	0.071624	12.687779	0.000000	21.962606	-17.294374	-30.434947	-13.051666	0.773298	13.756753	0.000000	4.329068	1.777097	-0.425239
0.385000	15.055245	2.960807	-180.082868	0.216127	0.844989	-1.215539	20.735888	-9.393687	-33.161233	-11.682978	0.121793	12.636144	0.000000	21.985241	-17.396803	-30.339476	-13.263111	0.857483	13.643281	0.000000	4.202550	1.791213	-0.394859
0.390000	15.123324	2.880250	-180.074733	0.216657	0.844852	-1.215431	20.944243	-9.506911	-32.819190	-11.864983	0.116937	12.203984	0.000000	22.205080	-17.295280	-29.884826	-13.462088	0.874979	12.984015	0.000000	4.198530	1.710913	-0.405742
0.395000	15.083589	2.861109	-180.153152	0.216705	0.844819	-1.215242	21.021661	-9.577179	-32.696658	-12.080982	0.178470	12.211633	0.000000	22.236725	-17.326771	-29.853900	-13.678167	1.033428	12.900421	0.000000	4.129557	1.742512	-0.334682
0.400000	15.103493	2.807613	-180.189523	0.217174	0.844793	-1.215224	21.201591	-9.675517	-32.517584	-12.323643	0.235869	12.063587	0.000000	22.406585	-17.283208	-29.430865	-13.889069	0.990805	12.254054	0.000000	4.076340	1.691339	-0.282713
0.405000	14.995919	2.867471	-180.219192	0.217657	0.844909	-1.215610	21.222463	-9.624865	-32.448185	-12.536923	0.330333	11.994652	0.000000	22.476634	-17.454884	-29.312055	-14.230551	1.090569	12.202751	0.000000	3.861340	1.709483	-0.223377
0.410000	15.072205	2.782761	-180.272541	0.218110	0.844673	-1.215325	21.469166	-9.763859	-32.169726	-12.777243	0.339962	11.746326	0.000000	22.701796	-17.373804	-28.957326	-14.500868	1.171305	11.665567	0.000000	3.873408	1.669973	-0.165387
0.415000	14.972400	2.807933	-180.303979	0.218414	0.844672	-1.215522	21.488430	-9.765975	-32.074230	-12.990625	0.424429	11.714802	0.000000	22.786381	-17.500537	-28.846732	-14.875771	1.288240	11.592264	0.000000	3.687558	1.672838	-0.126394
0.420000	15.053524	2.775514	-180.265451	0.219299	0.844472	-1.215547	21.747977	-9.845967	-31.852304	-13.227294	0.447004	11.408971	0.000000	23.160812	-17.495506	-28.381113	-15.276377	1.315966	11.071500	0.000000	3.635769	1.615074	-0.149383
0.425000	14.937094	2.845226	-180.297012	0.219634	0.844511	-1.215697	21.757737	-9.794552	-31.706685	-13.449584	0.511396	11.214847	0.000000	23.255340	-17.634301	-28.022631	-15.656716	1.428440	10.672821	0.000000	3.421329	1.681371	-0.107417
